<?xml version="1.0" encoding="utf-8"?>
<!-- Generator: Adobe Illustrator 16.0.0, SVG Export Plug-In . SVG Version: 6.00 Build 0)  -->
<!DOCTYPE svg PUBLIC "-//W3C//DTD SVG 1.1//EN" "http://www.w3.org/Graphics/SVG/1.1/DTD/svg11.dtd">
<svg version="1.1" id="Layer_1" xmlns="http://www.w3.org/2000/svg" xmlns:xlink="http://www.w3.org/1999/xlink" x="0px" y="0px"
	 width="500px" height="500px" viewBox="0 0 500 500" enable-background="new 0 0 500 500" xml:space="preserve">
<g>
	<path fill="#757576" d="M294.472,260c5.487,4,4.115,40,5.487,51c2.743,15,4.115,30,4.115,45c0,26-2.742,50-5.487,76
		c-1.371,6-10.974,33-4.115,37c13.719,9,12.348-25,13.719-30c2.744-26,6.859-50,13.718-75c4.115-17-6.383-35.536-5.011-51.536
		c1.372-17,15.985-34.464,15.985-52.464"/>
	<g>
		<path d="M292.704,261.768c1.802,1.537,2.014,5.068,2.372,7.231c0.79,4.765,0.982,9.653,1.21,14.47
			c0.413,8.735,0.276,17.52,1.033,26.234c0.605,6.97,2.191,13.89,2.94,20.862c0.906,8.446,1.28,16.942,1.314,25.435
			c0.063,15.824-1.079,31.637-2.545,47.383c-1.125,12.09-1.749,24.258-5.108,35.943c-2.287,7.96-5.197,16.954-4.227,25.336
			c0.615,5.314,6.019,10.087,11.535,7.826c5.686-2.33,6.875-10.419,7.661-15.694c1.618-10.853,2.16-21.915,3.573-32.808
			c1.318-10.163,3.013-20.278,4.997-30.332c2.032-10.294,4.999-20.348,7.202-30.588c3.849-17.895-7.564-35.019-4.995-52.856
			c2.536-17.609,15.3-31.982,15.715-50.21c0.073-3.227-4.927-3.219-5,0c-0.314,13.787-7.938,26-12.685,38.592
			c-4.698,12.463-3.277,23.955-0.414,36.652c1.543,6.84,3.034,13.646,3.084,20.69c0.057,7.949-3.208,16.065-5.005,23.751
			c-3.419,14.617-5.917,29.427-7.899,44.301c-1.147,8.607-2.063,17.19-2.785,25.836c-0.347,4.144-0.519,16.759-5.788,18.187
			c-7.897,2.141-2.754-17.442-2.131-19.997c0.961-3.941,2.119-7.833,3.25-11.729c1.501-5.167,1.74-10.521,2.303-15.861
			c3.807-36.086,6.561-72.135,0.407-108.13c-1.739-10.177-1.022-20.897-1.55-31.188c-0.246-4.793-0.634-9.585-1.419-14.322
			c-0.475-2.857-1.18-6.562-3.512-8.55C293.802,256.152,290.247,259.672,292.704,261.768L292.704,261.768z"/>
	</g>
</g>
<g>
	<path fill="#4C4C4D" d="M152.298,205.407c6.712-3.339-1.738-10.455-6.781-9.878c-7.285,1.139-10.609,8.868-12.823,14.387
		c-4.409,14.894,1.843,30.833-2.001,46.275c9.501-6.107,16.162-19.362,22.285-28.206c5.562-8.842,9.963-24.836-2.408-31.381"/>
	<g>
		<path d="M153.56,207.566c5.021-3.05,4.417-8.462-0.115-11.796c-5.969-4.392-12.431-2.785-17.221,2.534
			c-14.081,15.633-3.831,38.887-7.941,57.223c-0.445,1.986,1.741,4.138,3.672,2.823c6.069-4.129,10.503-9.837,14.591-15.851
			c3.905-5.746,8.202-11.705,11.126-18.018c4.833-10.436,5.216-23.642-5.84-30.035c-2.796-1.617-5.313,2.705-2.523,4.317
			c10.177,5.884,6.86,18.636,2.045,27.083c-5.597,9.819-12.438,21.735-21.922,28.187c1.224,0.94,2.448,1.882,3.672,2.823
			c2.848-12.704-0.114-25.425,0.583-38.243c0.326-5.999,2.354-12.009,6.073-16.774c1.597-2.047,4.007-3.764,6.68-3.834
			c1.712-0.045,7.967,3.197,4.598,5.244C148.285,204.919,150.796,209.244,153.56,207.566L153.56,207.566z"/>
	</g>
</g>
<g>
	<path fill="#757576" d="M376,101c-6-28-47-10-56-34c5,11,10,25,16,36c3,4,9,12,15,13c9,2,13-7,20-12"/>
	<g>
		<path d="M378.411,100.335c-2.894-12.264-12.761-17.225-24.287-19.485c-11.087-2.175-26.749-2.164-31.713-14.515
			c-1.523,0.642-3.047,1.284-4.569,1.926c6.809,15.151,11.28,32.643,23.295,44.651c4.416,4.413,10.268,7.064,16.466,5.17
			c6.083-1.859,9.801-8.248,14.659-11.924c2.536-1.919,0.05-6.264-2.523-4.317c-4.289,3.245-7.537,7.776-12.045,10.701
			c-6.608,4.288-13.069-2.842-16.942-7.465c-4.564-5.449-7.154-12.418-9.934-18.895c-2.919-6.802-5.624-13.691-8.659-20.444
			c-1.156-2.573-5.624-0.699-4.569,1.926c4.569,11.369,15.343,14.622,26.505,16.529c12.115,2.07,26.165,3.354,29.495,17.471
			C374.329,104.802,379.15,103.471,378.411,100.335L378.411,100.335z"/>
	</g>
</g>
<g>
	<path fill="#757576" d="M414,117c-10-12,38-32,47-37c1,10-6,31-13,37c-9,9-30,11-35-2"/>
	<g>
		<path d="M416.158,115.738c-7.881-10.298,39.248-29.832,46.104-33.58c-1.254-0.72-2.508-1.439-3.762-2.159
			c0.456,6.132-1.144,12.253-2.98,18.051c-1.895,5.985-4.56,12.834-9.287,17.181c-7.979,7.335-25.821,10.734-31.074-1.494
			c-1.269-2.955-5.575-0.405-4.316,2.523c6,13.972,25.575,12.209,36.078,4.894c5.779-4.026,8.949-10.386,11.579-16.717
			c3.104-7.471,5.608-16.268,5.001-24.438c-0.141-1.89-2.015-3.114-3.762-2.159c-11.033,6.032-22.629,10.829-33.317,17.534
			c-6.24,3.913-21.595,13.721-14.579,22.887C413.772,120.785,418.119,118.3,416.158,115.738L416.158,115.738z"/>
	</g>
</g>
<g>
	<path fill="#757576" d="M349,186c-33-16-74-21-110-26c-21-3-55-5-74,7c-12,8-20,22-26,35c-8,13-4,26,2,39c6,14,12,29,21,40
		c10,15,23,13,38,11c40-6,78-14,117-19c27-3,38-18,47-42c6-14,17-21,25-34c10-16,4-29-16-21c-8,3-17,16-27,7"/>
	<g>
		<path d="M350.262,183.841c-25.373-12.133-53.129-17.739-80.752-22.009c-24.182-3.738-48.85-8.054-73.395-6.125
			c-10.821,0.851-21.808,3.086-31.326,8.493c-10.71,6.084-18.119,17.554-23.795,28.111c-2.999,5.577-6.291,11.397-8.023,17.501
			c-1.854,6.532-0.811,13.576,0.978,19.981c1.805,6.464,4.942,12.585,7.569,18.739c2.908,6.812,5.919,13.575,9.406,20.114
			c5.271,9.884,12.144,20.921,22.875,25.363c9.976,4.129,22.458,1.091,32.659-0.484c31.491-4.863,62.762-11.047,94.277-15.764
			c12.28-1.838,24.926-2.352,36.332-7.676c8.33-3.888,14.809-10.629,19.76-18.238c6.313-9.704,8.903-21.166,15.774-30.526
			c7.349-10.011,16.953-17.927,21.871-29.626c3.485-8.289,1.747-19.566-8.882-20.512c-6.135-0.545-12.599,1.506-17.769,4.734
			c-6.098,3.806-12.845,11.203-20.054,5.314c-2.475-2.021-6.034,1.494-3.535,3.535c9.007,7.359,16.958,1.782,25.109-3.865
			c6.608-4.578,22.597-9.201,21.846,3.679c-0.325,5.593-4,10.883-7.113,15.286c-4.033,5.705-9.086,10.648-13.524,16.03
			c-7.554,9.16-10.51,20.171-16.201,30.37c-4.884,8.752-11.749,15.743-20.871,20.001c-5.13,2.394-10.894,3.56-16.478,4.232
			c-7.759,0.935-15.495,2.108-23.219,3.293c-31.782,4.875-63.308,11.638-95.182,15.894c-11.662,1.558-23.217,2.744-31.941-6.67
			c-9.584-10.343-15.349-24.233-20.824-37.007c-2.949-6.881-6.177-13.631-7.95-20.935c-2.251-9.277,0.683-16.39,4.59-24.611
			c5.712-12.017,13.18-24.839,24.837-31.945c10.165-6.197,23.039-7.637,34.674-8.175c11.73-0.543,23.567,0.332,35.19,1.905
			c27.902,3.777,56.01,7.436,83.081,15.436c9.415,2.782,18.623,6.239,27.48,10.475C350.632,189.542,353.17,185.232,350.262,183.841
			L350.262,183.841z"/>
	</g>
</g>
<g>
	<path fill="#757576" d="M177,252c-15,13-31,27-44,42c-15,16-9,32-4,51c7,31,17,59,29,88c3,8,10,34,18,37c7,4,14-2,14-8
		c0-5-9-15-12-20c-16-23-29-47-34-76c-2-12-3-24-4-37c-2-16,5-17,18-24c18-8,36-18,51-30"/>
	<g>
		<path d="M175.232,250.232c-11.652,10.102-23.242,20.279-34.074,31.267c-8.593,8.717-18.365,18.033-19.858,30.825
			c-1.414,12.121,3.061,23.577,5.712,35.197c3.445,15.097,7.831,29.967,12.79,44.632c4.822,14.259,10.831,28.019,16.014,42.128
			c3.115,8.48,5.569,17.14,9.295,25.396c2.983,6.613,8.573,15.901,17.391,13.945c4.688-1.039,7.746-4.033,9.501-8.416
			c1.646-4.108-0.84-8.424-2.933-11.807c-3.875-6.263-8.581-12.084-12.691-18.203c-5.559-8.276-10.657-16.852-15.172-25.74
			c-9.879-19.449-14.828-39.984-17.082-61.582c-0.521-4.993-0.926-9.999-1.324-15.004c-0.341-4.287-1.123-8.697-0.192-12.958
			c1.369-6.264,9.19-8.889,14.212-11.469c18.79-9.652,37.254-18.47,53.946-31.677c2.528-2-1.036-5.513-3.535-3.535
			c-12.063,9.544-25.326,17.388-39.068,24.248c-5.719,2.855-11.54,5.467-17.235,8.368c-3.671,1.87-7.419,3.811-10.176,6.95
			c-2.359,2.688-3.194,6.071-3.531,9.542c-0.684,7.053,0.895,14.813,1.542,21.843c1.329,14.431,3.404,28.69,7.738,42.553
			c7.75,24.783,22.106,46.013,36.836,67.061c3.36,4.802,7.143,11.598-0.822,14.707c-5.617,2.192-9.491-4.386-11.57-8.249
			c-4.498-8.355-6.979-17.701-10.068-26.625c-5.592-16.151-12.628-31.766-18-48.029c-5.622-17.021-9.774-34.411-14.264-51.747
			c-1.717-6.631-2.996-13.321-2.469-20.194c0.69-8.996,6.469-15.578,12.24-21.958c12.395-13.703,26.444-25.849,40.383-37.934
			C181.208,251.652,177.656,248.131,175.232,250.232L175.232,250.232z"/>
	</g>
</g>
<g>
	<path fill="#757576" d="M140,225c18,27-11,54-30,71c-11,11-23,16-27,32c-3,15-3,31-4,47c0,15,0,31-1,45c0,10-6,33-3,41
		c2,7,12,10,16,3c2-4-2-15-2-20c-1-14-1-29,0-43c1-16,1-33,2-49c0-7,0-17,3-23c4-10,13-10,21-14c27-11,61-30,80-53"/>
	<g>
		<path d="M137.841,226.262c15.438,24.203-7.695,47.868-24.684,63.518c-8.4,7.738-18.35,14.64-25.592,23.49
			c-8.389,10.252-8.879,24.266-9.754,36.911c-1.926,27.836,0.3,56.118-3.863,83.755c-1.292,8.583-4.151,19.203-1.359,27.729
			c2.606,7.958,12.122,11.533,18.732,5.988c5.736-4.812,1.393-15.46,0.376-21.378c-2.087-12.146-1.15-25.634-0.629-37.891
			c0.56-13.168,1.24-26.317,1.669-39.493c0.198-6.068,0.759-12.17,0.763-18.237c0.003-5.787,0.124-11.594,1.519-17.239
			c2.681-10.849,12.918-12.833,21.957-16.543c9.667-3.968,19.091-8.507,28.275-13.489c18.965-10.287,37.557-22.975,51.516-39.615
			c2.058-2.452-1.46-6.009-3.535-3.535c-17.093,20.376-40.857,34.643-64.585,46.021c-5.285,2.535-10.771,4.623-16.058,7.134
			c-4.783,2.272-9.97,3.241-14.407,6.27c-9.239,6.307-9.581,19.6-9.677,29.592c-0.296,30.978-4.039,61.938-2.131,92.92
			c0.297,4.823,1.321,9.415,2.203,14.156c0.493,2.65,1.146,5.614-0.792,7.793c-2.462,2.768-6.664,1.006-8.822-1.052
			c-3.129-2.983-2.38-8.977-2.121-12.802c0.399-5.897,1.445-11.75,2.315-17.59c2.949-19.791,1.262-39.719,2.457-59.594
			c0.722-12.001,0.958-24.021,2.413-35.968c1.443-11.854,5.662-20.113,14.636-27.937c22.451-19.572,65.188-51.43,43.495-85.438
			C140.431,221.029,136.102,223.535,137.841,226.262L137.841,226.262z"/>
	</g>
</g>
<g>
	<path fill="#828181" d="M76,462.5c5.5-1,11-1.5,14,3.5c3,4.5,5.5,11-1,13c-3.5,1-14.5,0-17-2.5s0-13.5,4.5-14"/>
	<g>
		<path d="M76.665,464.911c2.484-0.436,5.003-0.816,7.507-0.323c2.792,0.55,4.158,3.253,5.341,5.562
			c0.721,1.407,1.74,3.943,0.607,5.395c-1.224,1.569-3.966,1.346-5.7,1.333c-1.877-0.014-9.848-0.047-10.699-2.276
			c-0.952-2.492,0.441-9.071,3.443-9.689c3.157-0.65,1.817-5.47-1.329-4.822c-6.093,1.255-7.905,10.155-7.074,15.301
			c1.021,6.324,11.746,6.459,16.458,6.493c7.352,0.054,12.082-4.779,9.527-12.133c-1.256-3.616-3.544-7.271-6.953-9.138
			c-3.74-2.048-8.483-1.219-12.458-0.523C72.164,460.645,73.512,465.463,76.665,464.911L76.665,464.911z"/>
	</g>
</g>
<g>
	<path fill="#828181" d="M174.5,467c1-1.5,13.5-6.5,16-6c5,1,9,16,4,19c-4,2.5-13,1.5-17,1s-5.5-0.5-5-5c0.5-3,3.5-8.5,5-11"/>
	<g>
		<path d="M176.268,468.768c2.503-2.772,8.588-4.066,12.07-4.996c4.825-1.287,5.998,7.774,5.945,11.078
			c-0.1,6.261-11.008,4.279-15.067,3.854c-2.989-0.313-4.837,0.353-4.109-2.914c0.746-3.346,2.828-6.601,4.553-9.527
			c1.641-2.784-2.682-5.299-4.317-2.523c-2.882,4.89-10.323,17.592-0.443,19.419c6.343,1.173,20.798,3.568,23.668-4.531
			c2-5.646-0.116-17.823-6.851-19.869c-3.194-0.971-7.031,0.814-9.978,1.904c-2.856,1.058-6.895,2.232-9.006,4.571
			C170.578,467.618,174.103,471.166,176.268,468.768L176.268,468.768z"/>
	</g>
</g>
<g>
	<path fill="#828181" d="M331.5,470c6,0,11.5-1.5,15.5,4.5c1,1.5,3.5,7,2,9.5c-1.5,2-6,1-8,1.5c-4,0.5-10,2.5-13.5,0.5
		c-6-4-0.5-16.5,7.5-14"/>
	<g>
		<path d="M331.5,472.5c4.994-0.072,10.589-1.266,13.647,3.765c1.038,1.708,2.083,4.297,1.756,6.319
			c-0.069,0.432-5.181,0.289-5.816,0.388c-3.295,0.515-11.852,3.567-13.426-0.72c-1.462-3.981,2.625-8.833,6.674-7.841
			c3.132,0.767,4.46-4.055,1.33-4.822c-6.596-1.615-12.61,3.535-13.135,10.177c-0.246,3.104,0.688,6.052,3.202,8.002
			c3.468,2.691,8.709,1.454,12.628,0.714c3.714-0.703,7.856-0.101,11.298-1.761c3.24-1.563,2.323-6.367,1.529-9.018
			c-1.087-3.632-3.238-6.678-6.427-8.732c-3.791-2.442-9.041-1.532-13.261-1.471C328.278,467.547,328.274,472.547,331.5,472.5
			L331.5,472.5z"/>
	</g>
</g>
<g>
	<path fill="#828181" d="M293.5,467.5c0-2.5,3-2.5,5-2c4.5,1,3,1,4.5,4c1,1.5,4.5,6,4.5,7c-0.5,4-3,1.5-6.5,1.5c-2.5,0-8.5,3-11-0.5
		s3.5-11.5,7.5-12"/>
	<g>
		<path d="M295.911,468.165c0.248-1.747,4.464,1.413,3.845-0.148c0.509,1.284,0.893,2.486,1.703,3.627
			c1.034,1.456,2.096,2.889,3.063,4.391c0.264,0.409,0.354,0.911,0.4,0.671c0.743-0.405,0.7-0.61-0.129-0.616
			c-0.485-0.125-0.975-0.236-1.468-0.333c-3.467-0.736-7.781,2.098-10.895,0.661c-3.076-1.419,3.957-8.145,5.733-8.506
			c3.158-0.645,1.817-5.464-1.33-4.822c-5.517,1.125-11.482,8.895-9.535,14.571c1.205,3.511,5.19,4.345,8.44,3.869
			c1.754-0.257,3.495-0.909,5.26-1.029c1.63-0.111,3.263,0.717,4.905,0.766c2.92,0.086,4.827-3.633,3.778-6.116
			c-1.232-2.922-3.975-5.077-4.976-8.064c-1.702-5.075-12.714-6.618-13.619-0.25C290.642,469.987,295.459,471.346,295.911,468.165
			L295.911,468.165z"/>
	</g>
</g>
<g>
	<path fill="#757576" d="M313.91,258c-14.702,16,4.324,56,9.514,73c4.324,13,8.648,25,12.108,38c3.459,12,1.729,24,3.459,37
		c1.729,12,3.46,25,4.324,37c0,6-0.469,13.087,0.865,19c2.819,12.5-6.055,16-13.838,13c-3.46-2-6.054-28-6.054-35
		c-0.865-13-0.865-25-1.73-38c-0.864-14-0.864-28-6.054-41c-6.054-13-12.107-27-18.162-40c-3.459-6-6.919-14-10.378-20
		c-3.459-4-13.838-11-12.973-18c0-5,10.378-14,12.973-18c3.459-7,6.054-14,11.243-20"/>
	<g>
		<path d="M312.143,256.232c-12.562,14.465-3.974,38.407,1.378,54.116c3.261,9.571,6.72,19.068,9.958,28.649
			c4.995,14.78,10.948,29.803,11.822,45.509c0.4,7.179,0.323,14.343,1.19,21.493c0.977,8.049,2.235,16.058,3.136,24.118
			c0.806,7.223,1.113,14.269,1.111,21.525c-0.001,3.154,0.265,6.263,0.711,9.381c0.519,3.623,1.706,7.493-0.939,10.613
			c-2.101,2.477-8.271,3.026-9.484-0.327c-1.447-4.002-1.988-8.412-2.597-12.601c-1.451-9.993-1.815-20.118-2.231-30.194
			c-0.768-18.59-0.495-37.703-3.814-56.061c-1.604-8.865-5.574-16.676-9.246-24.808c-4.203-9.308-8.335-18.646-12.635-27.909
			c-1.572-3.386-3.53-6.646-5.189-10c-1.623-3.281-3.09-7.788-5.58-10.506c-4.147-4.527-12.526-9.34-12.24-16.232
			c0.121-2.922,3.441-6.055,5.2-8.089c2.004-2.318,4.148-4.51,6.103-6.872c2.212-2.674,3.39-6.12,4.861-9.231
			c2.023-4.277,4.299-8.38,7.319-12.04c2.035-2.466-1.481-6.024-3.535-3.535c-4.026,4.878-6.828,10.312-9.496,16.016
			c-2.45,5.239-5.872,8.756-9.621,13.092c-2.357,2.728-5.414,6.161-5.763,9.92c-0.45,4.863,1.997,8.595,5.072,12.137
			c3.647,4.2,7.759,6.937,10.397,11.959c3.34,6.358,6.727,12.802,9.733,19.319c3.216,6.969,6.332,13.984,9.476,20.986
			c3.483,7.759,7.464,15.338,9.565,23.613c3.805,14.979,3.424,31.604,3.987,46.974c0.418,11.37,0.639,22.793,1.76,34.121
			c0.762,7.701,1.266,16.523,4.622,23.615c2.947,6.229,13.968,3.614,17.479-0.527c5.131-6.05,1.192-15.886,1.086-22.813
			c-0.181-11.674-1.187-23.036-2.714-34.628c-1.435-10.891-2.241-21.542-2.724-32.509c-0.494-11.258-3.793-21.83-7.215-32.492
			c-5.156-16.065-11.157-31.835-16.369-47.874c-4.069-12.524-10.995-32.908-1.039-44.373
			C317.781,257.346,314.26,253.793,312.143,256.232L312.143,256.232z"/>
	</g>
</g>
<g>
	<path fill="#D794C1" d="M368,110.5c9-21.5-24-16-33.5-26c5,6.5,10,13,14,19.5c3,5,17,15.5,20.5,6.5"/>
	<g>
		<path d="M370.411,111.165c3.541-8.977,0.301-15.639-8.377-19.273c-7.988-3.346-19.33-2.813-25.767-9.159
			c-1.96-1.933-5.699,0.724-3.926,3.029c4.521,5.881,9.02,11.773,13.06,18c2.158,3.328,4.548,5.879,7.707,8.304
			c5.24,4.023,14.428,7.438,18.05-0.304c1.358-2.901-2.951-5.442-4.316-2.523c-2.854,6.097-11.813-1.697-14.586-4.503
			c-2.654-2.685-4.434-6.417-6.6-9.497c-2.876-4.089-5.951-8.038-8.998-12c-1.309,1.01-2.617,2.02-3.926,3.029
			c5.53,5.453,14.161,6.532,21.361,8.37c3.656,0.933,7.707,1.957,10.667,4.423c3.407,2.839,2.24,7.196,0.828,10.775
			C364.404,112.838,369.242,114.128,370.411,111.165L370.411,111.165z"/>
	</g>
</g>
<g>
	<path fill="#D794C1" d="M414,119.5c1-9,10-10,17-11.5c8-1,16-5,19-13c-3,7-4.5,16-11,20.5c-7,5-14.5,5.5-22.5,2.5"/>
	<g>
		<path d="M416.411,120.165c1.381-8.543,11.148-8.896,18.069-10.233c7.718-1.491,14.591-6.378,17.678-13.67
			c-1.522-0.642-3.046-1.284-4.569-1.926c-2.458,5.987-3.791,12.724-8.26,17.632c-5.683,6.242-14.854,6.159-22.164,3.622
			c-3.055-1.06-4.355,3.771-1.33,4.821c8.972,3.114,17.874,2.265,25.523-3.591c6.504-4.98,8.112-13.994,11.053-21.155
			c1.073-2.616-3.47-4.523-4.569-1.926c-4.226,9.978-13.673,10.867-22.976,13.015c-6.59,1.522-12.134,5.009-13.277,12.082
			C411.079,121.989,415.897,123.341,416.411,120.165L416.411,120.165z"/>
	</g>
</g>
<g>
	<path fill="#757576" d="M412.434,114c-15.836-8-40.468-23-51.904,1c-5.279,10-7.918,22-8.798,34c-0.88,10-5.398,29-0.12,38
		c9.677,19,41.348-2,50.145-12c7.918-8,15.076-24,15.956-35s2.692-23.87-6.985-26.87"/>
	<g>
		<path d="M413.695,111.841c-14.474-7.353-35.007-19.872-49.651-6.293c-9.049,8.391-12.304,24-13.978,35.604
			c-1.607,11.148-3.521,22.945-3.466,34.219c0.04,8.035,2.866,17.416,11.083,20.562c7.863,3.01,16.51,0.063,23.756-3.289
			c18.643-8.623,31.643-24.325,37.227-44.048c2.066-7.297,2.571-15.658,2.19-23.202c-0.335-6.64-2.997-12.299-9.465-14.675
			c-3.034-1.114-4.33,3.719-1.33,4.821c5.257,1.931,5.789,7.513,5.884,12.4c0.104,5.441-0.365,11.242-1.431,16.571
			c-2.2,11.008-7.839,21.664-15.517,29.792c-5.578,5.906-12.817,10.5-20.082,14.023c-7.148,3.466-18.395,6.964-24.068-0.764
			c-6.055-8.247-2.862-21.703-1.563-30.97c1.875-13.366,2.735-26.408,8.631-38.816c4.788-10.078,12.203-14.858,23.357-12.646
			c9.221,1.829,17.613,6.82,25.898,11.029C414.039,117.615,416.57,113.302,413.695,111.841L413.695,111.841z"/>
	</g>
</g>
<g>
	<path fill="#151515" d="M363.661,166.376c4.5,2.5,22.339,4.124,9.839,10.624c-4.5,2.5-11,5.5-14,0c-2-4,0-14,7-9.5"/>
	<g>
		<path fill="#161516" d="M362.399,168.535c2.773,1.448,5.954,2.056,8.922,2.979c1.387,0.432,2.748,0.906,3.976,1.694
			c0.581,0.373-0.055,0.158,0.085-0.456c-0.092,0.403-1.45,1.121-1.811,1.346c-2.787,1.747-10.557,6.358-12.106,1.013
			c-0.441-1.526-0.184-3.216,0.292-4.695c0.634-1.972,1.977-1.651,3.481-0.758c2.779,1.65,5.293-2.673,2.523-4.317
			c-6.346-3.769-11.054,1.024-11.485,7.463c-0.205,3.064,0.871,6.175,3.31,8.109c3.146,2.495,7.288,1.77,10.746,0.396
			c3.845-1.528,13.94-6.262,8.532-11.609c-3.607-3.567-9.646-3.24-13.941-5.483C362.068,162.727,359.54,167.042,362.399,168.535
			L362.399,168.535z"/>
	</g>
</g>
<g>
	<g>
		<path d="M381.078,136.998c0.857-4.837-0.189-8.813-4.234-11.832c-3.414-2.547-8.583-4.984-12.842-3.243
			c-2.942,1.203-1.656,6.042,1.33,4.821c2.523-1.032,5.24,0.379,7.42,1.662c2.898,1.706,4.098,3.92,3.504,7.263
			C375.697,138.821,380.515,140.169,381.078,136.998L381.078,136.998z"/>
	</g>
</g>
<g>
	<g>
		<path d="M377.072,135.175c-2.188,1.291-6.696,1.861-8.743,0.015c-1.429-1.29,1.067-3.18,2.006-3.717
			c2.274-1.303,3.002,3.077,3.588,4.525c1.194,2.949,6.032,1.661,4.822-1.329c-1.48-3.656-2.857-8.967-7.879-8.477
			c-4.212,0.411-8.188,4.352-7.838,8.696c0.602,7.48,11.716,7.467,16.567,4.604C382.369,137.855,379.855,133.532,377.072,135.175
			L377.072,135.175z"/>
	</g>
</g>
<g>
	<g>
		<path d="M370.334,129.833c-1.665-0.21-3.272,0.438-4.193,1.861c-0.711,1.1-0.688,2.695-0.198,3.872
			c0.533,1.28,1.335,2.467,2.604,3.125c1.667,0.863,3.425,0.583,4.857-0.58c1.452-1.178,1.608-3.345,1.091-5.026
			c-0.306-0.991-0.875-1.797-1.744-2.364c-1.169-0.762-2.895-0.447-3.852,0.511c-1.952,1.952-1.444,5.897,1.602,6.382
			c1.399,0.222,2.904-0.151,3.934-1.181c1.511-1.511,0.596-4.378-1.436-4.845c-1.327-0.305-2.703,0.391-3.076,1.746
			c-0.349,1.271,0.419,2.77,1.746,3.075c0.055,0.013,0.108,0.025,0.163,0.038c-0.368-0.214-0.735-0.429-1.104-0.643
			c0.033,0.034,0.066,0.067,0.099,0.101c-0.214-0.368-0.429-0.735-0.643-1.103c-0.019-0.4-0.024-0.445-0.018-0.137
			c0.413-0.72,0.825-1.439,1.238-2.159c-0.075,0.056-0.728,0.404-0.19,0.193c-0.289,0.074-0.25,0.077,0.118,0.01
			c0.236,0.008,0.454,0.077,0.651,0.208c0.404,0.175,0.692,0.777,0.7,1.192c0.015,0.195-0.025,0.377-0.123,0.544
			c0.077-0.139,0.165-0.27,0.265-0.393c-0.3,0.299-0.599,0.598-0.897,0.897c0.039-0.026,0.077-0.052,0.116-0.078
			c-0.26,0.143-0.538,0.216-0.835,0.219c-0.327-0.087-0.655-0.173-0.982-0.26c-0.356-0.306-0.445-0.369-0.266-0.189
			c-0.085-0.105-0.169-0.211-0.254-0.316c0.12,0.223,0.093,0.14-0.081-0.249c0.054,0.13,0.089,0.268,0.124,0.403
			c0.047,0.182,0.073,0.676,0.001-0.084c0.014,0.145,0.011,0.291,0.007,0.436c-0.014,0.522,0.122-0.613,0.013-0.131
			c-0.082,0.359,0.308-0.511,0.371-0.58c-0.134,0.145-0.5,0.389,0.14-0.077c-0.088,0.063-0.184,0.113-0.279,0.161
			c0.662-0.333,0.453-0.182,0.223-0.129c0.734-0.168,0.553-0.058,0.294-0.062c-0.413-0.006,0.704,0.13,0.303,0.032
			c-0.201-0.049-0.524-0.238,0.248,0.119c-0.088-0.041-0.169-0.092-0.25-0.143c-0.354-0.222,0.514,0.426,0.192,0.15
			c-0.181-0.154-0.641-0.753-0.09-0.024c-0.125-0.166-0.229-0.347-0.324-0.53c-0.2-0.385,0.243,0.624,0.09,0.222
			c-0.036-0.093-0.063-0.189-0.091-0.285c-0.196-0.696,0.011,0.553-0.002,0.011c-0.012-0.541-0.202,0.701,0.009,0.07
			c-0.239,0.713-0.235,0.513-0.102,0.305c-0.096,0.126-0.191,0.251-0.287,0.377c0.171-0.167,0.066-0.094-0.314,0.222
			c0.157-0.12,0.531-0.248-0.269,0.08c0.097-0.04,0.2-0.062,0.303-0.084c-0.76,0.167-0.423,0.051-0.182,0.045
			c0.194-0.005,0.389,0.019,0.58,0.043c1.355,0.171,2.5-1.267,2.5-2.5C372.834,130.841,371.686,130.004,370.334,129.833
			L370.334,129.833z"/>
	</g>
</g>
<g>
	<g>
		<path d="M396.174,144.001c1.474-2.931,3.167-4.205,6.508-4.188c2.442,0.013,6.15,0.581,7.564,2.82
			c1.716,2.718,6.044,0.211,4.316-2.523c-2.394-3.792-6.887-4.869-11.094-5.257c-5.299-0.49-9.264,1.954-11.611,6.625
			C390.413,144.35,394.726,146.882,396.174,144.001L396.174,144.001z"/>
	</g>
</g>
<g>
	<g>
		<path d="M391.533,145.004c2.258,5.207,11.498,11.559,16.141,5.57c2.396-3.093,1.817-7.769-0.68-10.67
			c-3.612-4.196-8.114-1.018-11.769,1.254c-2.731,1.698-0.224,6.025,2.523,4.317c1.275-0.792,4.444-3.817,5.678-2.017
			c0.867,1.265,1.448,4-0.505,4.515c-2.641,0.695-6.19-3.461-7.072-5.492C394.57,139.529,390.264,142.078,391.533,145.004
			L391.533,145.004z"/>
	</g>
</g>
<g>
	<g>
		<path d="M401.836,146.615c0.131,0.073,0.257,0.148,0.382,0.23c-0.615-0.402-0.187-0.149-0.032,0.01
			c0.309,0.316-0.361-0.529-0.146-0.176c0.202,0.332-0.211-0.699-0.098-0.181c-0.163-0.745-0.06-0.594-0.075-0.334
			c0.087-0.526,0.102-0.667,0.042-0.422c-0.076,0.23-0.022,0.11,0.161-0.361c-0.048,0.107-0.115,0.205-0.183,0.3
			c0.491-0.694,0.249-0.324,0.078-0.16c-0.143,0.135-0.474,0.347,0.199-0.145c-0.109,0.08-0.228,0.148-0.345,0.214
			c-0.09,0.051-0.185,0.094-0.278,0.137c0.789-0.362,0.318-0.139,0.109-0.077c-0.099,0.03-0.2,0.05-0.301,0.071
			c-0.409,0.083,0.757-0.059,0.164-0.036c-0.231,0.009-0.733-0.092,0.183,0.053c-0.123-0.02-0.242-0.058-0.36-0.1
			c0.731,0.262,0.47,0.208,0.271,0.083c0.376,0.307,0.473,0.379,0.29,0.216c-0.167-0.177-0.099-0.081,0.203,0.288
			c-0.062-0.081-0.107-0.173-0.154-0.263c0.364,0.712,0.134,0.306,0.081,0.051c0.018,0.136,0.036,0.271,0.054,0.407
			c-0.083,0.474-0.09,0.581-0.021,0.32c-0.203,0.704-0.087,0.213,0.06-0.013c-0.394,0.608-0.049,0.077,0.097-0.069
			c0.479-0.481-0.261,0.153,0.069-0.056c0.422-0.267-0.572,0.184-0.129,0.048c-0.773,0.236-1.559-0.217-1.989-0.846
			c-0.077-0.274-0.155-0.548-0.232-0.822c-0.02,0.292-0.01,0.236,0.028-0.167c-0.081,0.261-0.047,0.193,0.103-0.203
			c-0.138,0.221-0.081,0.15,0.173-0.214c0.064-0.07,0.936-0.47,0.629-0.385c0.586-0.163,0.808-0.046,1.167,0.128
			c-0.212-0.133-0.147-0.078,0.194,0.164c-0.174-0.185-0.137-0.127,0.111,0.173c-0.06-0.09-0.113-0.184-0.159-0.281
			c0.133,0.332,0.155,0.361,0.065,0.088c-0.084,0.642-0.168,1.284-0.252,1.926c-0.328,0.248-0.656,0.496-0.984,0.744
			c-0.643-0.084-1.284-0.168-1.927-0.252c0.051,0.022,0.103,0.044,0.153,0.066c1.251,0.541,2.67,0.383,3.42-0.897
			c0.626-1.067,0.355-2.88-0.896-3.42c-0.869-0.375-1.955-0.644-2.816-0.043c-0.667,0.465-1.295,1.063-1.52,1.876
			c-0.343,1.247,0.423,2.824,1.37,3.642c1.735,1.499,4.569,1.313,5.647-0.913c0.59-1.219,0.656-2.512,0.043-3.734
			c-0.649-1.295-2.222-1.75-3.546-1.476c-1.742,0.362-3.256,2.063-3.734,3.724c-0.497,1.723,0.508,3.76,2.037,4.603
			c1.212,0.668,2.744,0.707,4.033,0.242c1.253-0.452,2.485-1.251,3.111-2.471c0.825-1.607,0.507-3.381-0.746-4.666
			c-0.365-0.376-0.824-0.685-1.282-0.94c-1.19-0.664-2.722-0.295-3.42,0.897C400.261,144.352,400.647,145.952,401.836,146.615
			L401.836,146.615z"/>
	</g>
</g>
<g>
	<path fill="#4C4C4D" d="M337.767,195.496c-10.395-0.98-9.946-4.57-20.339-3.589c-11.339,0.98-18.897,2.94-29.292,0.98
		c-20.787-2.941-40.629-7.843-60.472-12.745c-22.677-4.902-37.795-8.824-58.583,2.941c-5.669,3.921-11.338,7.843-16.063,11.764
		c-10.394,7.844-6.614,5.883-3.779,15.687c3.779,10.784,1.89,25.49,2.835,36.275c1.89,18.627,14.173,8.824,26.457,3.921
		c17.952-5.882,9.981,11.27,26.969,11.27c12.5,0,3.052,1.961,12.5,0c5.669-0.979,9.831,0,15.5,0c4.725-0.98,13.72,0.923,17.5-3
		c5.669-4.901,4.065-0.427,8.79-6.309c6.614-8.824,21.731-14.706,32.126-16.667c4.725,0,10.394-0.98,14.173,0
		c7.559,0.98,6.614,3.922,10.394,8.824c3.779,2.941-0.944,3.921,5.67,4.902c0,0,6.614-1.961,7.559-1.961
		c6.614-3.921,7.559-10.784,10.394-17.647c5.67-11.765,10.433-16.995,17.991-26.799c2.835-2.941-2.835,1.961,0,0
		c-6.614-0.98-8.942-3.739-15.557-7.661"/>
</g>
<g>
	<path fill="#4C4C4D" d="M149.5,268c6.5,0.5,14.5-2,21.5-3.5c-2.5,7.5-21,16.5-28,21c-5.5,4.5-12,7-18,11.5
		c-5,3.5-9.5,8.5-15.5,11.5c8.5-6,15.5-13,22-21c7-8,11.5-20.5,23.5-20"/>
</g>
<g>
	<path fill="#4C4C4D" d="M304,252c-6,5-20.5,31-17,38.5c4.5,8,11,15,16,22.5c5.245,8.392,8.013,20.527,12,29.5c4.5,9,7,19,12.5,27
		C328,361,324,345,319,338c-6-8-5.172-16.5-9.172-25.5c-3.5-8.5-6.828-16.5-10.828-25C295.5,279.5,300.5,260,304,252"/>
</g>
<g>
	<g>
		<path fill="#E2E2E2" d="M181,176.5c3.224,0,3.224-5,0-5S177.776,176.5,181,176.5L181,176.5z"/>
	</g>
</g>
<g>
	<g>
		<path fill="#E2E2E2" d="M168,185.5c3.224,0,3.224-5,0-5S164.776,185.5,168,185.5L168,185.5z"/>
	</g>
</g>
<g>
	<g>
		<path fill="#E2E2E2" d="M187.5,188.5c3.224,0,3.224-5,0-5S184.276,188.5,187.5,188.5L187.5,188.5z"/>
	</g>
</g>
<g>
	<g>
		<path fill="#E2E2E2" d="M197.5,178c3.224,0,3.224-5,0-5S194.276,178,197.5,178L197.5,178z"/>
	</g>
</g>
<g>
	<g>
		<path fill="#E2E2E2" d="M214,176.5c3.224,0,3.224-5,0-5S210.776,176.5,214,176.5L214,176.5z"/>
	</g>
</g>
<g>
	<g>
		<path fill="#E2E2E2" d="M208.5,189.5c3.224,0,3.224-5,0-5S205.276,189.5,208.5,189.5L208.5,189.5z"/>
	</g>
</g>
<g>
	<g>
		<path fill="#E2E2E2" d="M190,204.5c3.224,0,3.224-5,0-5S186.776,204.5,190,204.5L190,204.5z"/>
	</g>
</g>
<g>
	<g>
		<path fill="#E2E2E2" d="M167.5,202.5c-0.09,0-0.18,0-0.27-0.003c-0.043-0.002-0.086-0.005-0.129-0.007
			c1.009,0.019,1.643,0.689,1.899,2.01c-0.131-1.356-1.038-2.5-2.5-2.5c-1.263,0-2.631,1.141-2.5,2.5
			c0.098,1.009,0.456,2.015,1.413,2.53c0.662,0.356,1.344,0.468,2.087,0.47c1.363,0.004,2.5-1.14,2.5-2.5
			C170,203.634,168.863,202.504,167.5,202.5L167.5,202.5z"/>
	</g>
</g>
<g>
	<g>
		<path fill="#E2E2E2" d="M165,196c0-0.167,0-0.333,0-0.5c0-1.363-1.137-2.5-2.5-2.5s-2.5,1.137-2.5,2.5c0,0.167,0,0.333,0,0.5
			c0,1.363,1.137,2.5,2.5,2.5S165,197.363,165,196L165,196z"/>
	</g>
</g>
<g>
	<g>
		<path fill="#E2E2E2" d="M177.5,201.5c3.224,0,3.224-5,0-5S174.276,201.5,177.5,201.5L177.5,201.5z"/>
	</g>
</g>
<g>
	<g>
		<path fill="#E2E2E2" d="M172,217c-0.007,0.208,0.019,0.017,0.079-0.573c-0.004,0.02-0.009,0.039-0.014,0.059
			c0.246-0.844,0.891-1.339,1.935-1.486c-1.356,0.127-2.5,1.041-2.5,2.5c0,1.267,1.141,2.627,2.5,2.5
			c1.109-0.104,1.871-0.48,2.53-1.389c0.322-0.443,0.453-1.075,0.47-1.611c0.044-1.363-1.17-2.5-2.5-2.5
			C173.104,214.5,172.044,215.638,172,217L172,217z"/>
	</g>
</g>
<g>
	<g>
		<path fill="#E2E2E2" d="M160.5,222c-0.5,0-1,0-1.5,0c-1.363,0-2.5,1.137-2.5,2.5s1.137,2.5,2.5,2.5c0.5,0,1,0,1.5,0
			c1.363,0,2.5-1.137,2.5-2.5S161.863,222,160.5,222L160.5,222z"/>
	</g>
</g>
<g>
	<g>
		<path fill="#E2E2E2" d="M153.5,218c3.224,0,3.224-5,0-5S150.276,218,153.5,218L153.5,218z"/>
	</g>
</g>
<g>
	<g>
		<path fill="#E2E2E2" d="M166.5,239c3.224,0,3.224-5,0-5S163.276,239,166.5,239L166.5,239z"/>
	</g>
</g>
<g>
	<g>
		<path fill="#E2E2E2" d="M184.5,234.5c3.224,0,3.224-5,0-5S181.276,234.5,184.5,234.5L184.5,234.5z"/>
	</g>
</g>
<g>
	<g>
		<path fill="#E2E2E2" d="M187.5,218.5c-0.02-0.612-0.149-1.002-0.422-1.546c-0.496-0.985-1.563-1.359-2.578-1.454
			c-1.359-0.127-2.5,1.233-2.5,2.5c0,1.459,1.144,2.373,2.5,2.5c-1.043-0.146-1.688-0.642-1.935-1.486
			c0.112,0.321-0.072-0.731-0.065-0.514c0.044,1.362,1.104,2.5,2.5,2.5C186.33,221,187.544,219.863,187.5,218.5L187.5,218.5z"/>
	</g>
</g>
<g>
	<g>
		<path fill="#E2E2E2" d="M194,225.5c3.224,0,3.224-5,0-5S190.776,225.5,194,225.5L194,225.5z"/>
	</g>
</g>
<g>
	<g>
		<path fill="#E2E2E2" d="M203.5,222c0-0.076,0-0.153,0.003-0.229c-0.002,0.342-0.09,0.661-0.263,0.957
			c-0.313,0.382-0.38,0.472-0.198,0.27c0.075-0.077,0.15-0.154,0.226-0.229c0.962-0.964,0.964-2.571,0-3.535
			c-0.962-0.962-2.574-0.965-3.535,0c-0.796,0.798-1.229,1.62-1.232,2.768c-0.004,1.363,1.14,2.5,2.5,2.5
			C202.366,224.5,203.496,223.363,203.5,222L203.5,222z"/>
	</g>
</g>
<g>
	<g>
		<path fill="#E2E2E2" d="M199.5,209.5c0-0.333,0-0.667,0-1c0-1.363-1.137-2.5-2.5-2.5s-2.5,1.137-2.5,2.5c0,0.333,0,0.667,0,1
			c0,1.363,1.137,2.5,2.5,2.5S199.5,210.863,199.5,209.5L199.5,209.5z"/>
	</g>
</g>
<g>
	<g>
		<path fill="#E2E2E2" d="M206.768,203.768c0.167-0.167,0.333-0.333,0.5-0.5c0.963-0.963,0.963-2.572,0-3.535
			c-0.963-0.963-2.572-0.963-3.535,0c-0.167,0.167-0.333,0.333-0.5,0.5c-0.963,0.963-0.963,2.572,0,3.535
			C204.195,204.731,205.805,204.731,206.768,203.768L206.768,203.768z"/>
	</g>
</g>
<g>
	<g>
		<path fill="#E2E2E2" d="M212,207.5c3.224,0,3.224-5,0-5S208.776,207.5,212,207.5L212,207.5z"/>
	</g>
</g>
<g>
	<g>
		<path fill="#E2E2E2" d="M220.5,199.5c0-0.167,0-0.333,0-0.5c0-1.363-1.137-2.5-2.5-2.5s-2.5,1.137-2.5,2.5c0,0.167,0,0.333,0,0.5
			c0,1.363,1.137,2.5,2.5,2.5S220.5,200.863,220.5,199.5L220.5,199.5z"/>
	</g>
</g>
<g>
	<g>
		<path fill="#E2E2E2" d="M218,194c3.224,0,3.224-5,0-5S214.776,194,218,194L218,194z"/>
	</g>
</g>
<g>
	<g>
		<path fill="#E2E2E2" d="M227,181.5c0.007-0.208-0.019-0.017-0.079,0.573c0.004-0.02,0.009-0.039,0.014-0.059
			c-0.246,0.844-0.891,1.339-1.935,1.486c1.356-0.127,2.5-1.041,2.5-2.5c0-1.267-1.141-2.627-2.5-2.5
			c-1.109,0.104-1.871,0.48-2.53,1.389c-0.322,0.443-0.453,1.075-0.47,1.611c-0.044,1.363,1.17,2.5,2.5,2.5
			C225.896,184,226.956,182.862,227,181.5L227,181.5z"/>
	</g>
</g>
<g>
	<g>
		<path fill="#E2E2E2" d="M230,175c-0.058-0.625-0.133-1.023-0.433-1.58c-0.129-0.241-0.328-0.453-0.516-0.654
			c-0.022-0.023-0.045-0.046-0.068-0.068c0.333,0.356,0.505,0.79,0.516,1.302c-0.126-1.356-1.042-2.5-2.5-2.5
			c-1.267,0-2.627,1.141-2.5,2.5c0.058,0.625,0.133,1.023,0.433,1.58c0.129,0.241,0.328,0.453,0.516,0.654
			c0.022,0.023,0.045,0.046,0.068,0.068c-0.333-0.356-0.505-0.79-0.516-1.302c0.126,1.356,1.042,2.5,2.5,2.5
			C228.767,177.5,230.127,176.359,230,175L230,175z"/>
	</g>
</g>
<g>
	<g>
		<path fill="#E2E2E2" d="M229.5,169c0-0.167,0-0.333,0-0.5c0-1.363-1.137-2.5-2.5-2.5s-2.5,1.137-2.5,2.5c0,0.167,0,0.333,0,0.5
			c0,1.363,1.137,2.5,2.5,2.5S229.5,170.363,229.5,169L229.5,169z"/>
	</g>
</g>
<g>
	<g>
		<path fill="#E2E2E2" d="M237.5,175c0.333,0,0.667,0,1,0c1.363,0,2.5-1.137,2.5-2.5s-1.137-2.5-2.5-2.5c-0.333,0-0.667,0-1,0
			c-1.363,0-2.5,1.137-2.5,2.5S236.137,175,237.5,175L237.5,175z"/>
	</g>
</g>
<g>
	<g>
		<path fill="#E2E2E2" d="M247.5,179c0.167,0,0.333,0,0.5,0c1.363,0,2.5-1.137,2.5-2.5s-1.137-2.5-2.5-2.5c-0.167,0-0.333,0-0.5,0
			c-1.363,0-2.5,1.137-2.5,2.5S246.137,179,247.5,179L247.5,179z"/>
	</g>
</g>
<g>
	<g>
		<path fill="#E2E2E2" d="M232.5,189c-0.333,0-0.667,0-1,0c-1.363,0-2.5,1.137-2.5,2.5s1.137,2.5,2.5,2.5c0.333,0,0.667,0,1,0
			c1.363,0,2.5-1.137,2.5-2.5S233.863,189,232.5,189L232.5,189z"/>
	</g>
</g>
<g>
	<g>
		<path fill="#E2E2E2" d="M231,199.5c0.058,0.625,0.133,1.023,0.433,1.58c0.129,0.241,0.328,0.453,0.516,0.654
			c0.022,0.023,0.045,0.046,0.068,0.068c-0.333-0.356-0.505-0.79-0.516-1.302c0.126,1.356,1.042,2.5,2.5,2.5
			c1.267,0,2.627-1.141,2.5-2.5c-0.058-0.625-0.133-1.023-0.433-1.58c-0.129-0.241-0.328-0.453-0.516-0.654
			c-0.022-0.023-0.045-0.046-0.068-0.068c0.333,0.356,0.505,0.79,0.516,1.302c-0.126-1.356-1.042-2.5-2.5-2.5
			C232.233,197,230.873,198.141,231,199.5L231,199.5z"/>
	</g>
</g>
<g>
	<g>
		<path fill="#E2E2E2" d="M252.268,196.268c0.259-0.282,0.492-0.589,0.709-0.905c0.05-0.078,0.1-0.157,0.147-0.236
			c-0.352,0.545-0.893,0.836-1.624,0.873c1.355-0.131,2.5-1.038,2.5-2.5c0-1.264-1.142-2.631-2.5-2.5
			c-0.868,0.083-1.517,0.298-2.163,0.907c-0.209,0.197-0.369,0.457-0.53,0.697c-0.371,0.554,0.284-0.263-0.075,0.129
			c-0.92,1.003-0.995,2.541,0,3.535C249.664,197.2,251.347,197.272,252.268,196.268L252.268,196.268z"/>
	</g>
</g>
<g>
	<g>
		<path fill="#E2E2E2" d="M264,183c0.016-0.673-0.108,0.436-0.012,0.06c0.083-0.242,0.039-0.139-0.131,0.309
			c0.134-0.208,0.063-0.117-0.215,0.273c-0.391,0.277-0.481,0.349-0.273,0.214c-0.447,0.17-0.551,0.214-0.309,0.131
			c0.357-0.12-0.726,0.027-0.061,0.012c1.362-0.032,2.5-1.113,2.5-2.5c0-1.339-1.137-2.532-2.5-2.5
			c-1.108,0.026-2.068,0.355-2.893,1.107c-0.792,0.723-1.084,1.863-1.107,2.893c-0.031,1.363,1.161,2.5,2.5,2.5
			C262.887,185.5,263.969,184.362,264,183L264,183z"/>
	</g>
</g>
<g>
	<g>
		<path fill="#E2E2E2" d="M271.732,183.268c0.166,0.167,0.333,0.333,0.5,0.5c0.963,0.963,2.572,0.963,3.535,0
			c0.963-0.963,0.963-2.572,0-3.535c-0.166-0.167-0.333-0.333-0.5-0.5c-0.963-0.963-2.572-0.963-3.535,0
			C270.77,180.695,270.77,182.305,271.732,183.268L271.732,183.268z"/>
	</g>
</g>
<g>
	<g>
		<path fill="#E2E2E2" d="M269.5,196c0,0.167,0,0.333,0,0.5c0,1.363,1.137,2.5,2.5,2.5s2.5-1.137,2.5-2.5c0-0.167,0-0.333,0-0.5
			c0-1.363-1.137-2.5-2.5-2.5S269.5,194.637,269.5,196L269.5,196z"/>
	</g>
</g>
<g>
	<g>
		<path fill="#E2E2E2" d="M249.238,207.841c-1.434,0.701-2.826,1.267-4.006,2.391c-0.987,0.939-0.946,2.59,0,3.535
			c0.98,0.981,2.549,0.939,3.535,0c0.101-0.1,0.205-0.195,0.314-0.285c-0.227,0.172-0.224,0.176,0.008,0.012
			c0.292-0.199,0.608-0.363,0.922-0.523c0.573-0.292,1.172-0.53,1.75-0.813c1.224-0.598,1.547-2.312,0.896-3.42
			C251.933,207.499,250.462,207.243,249.238,207.841L249.238,207.841z"/>
	</g>
</g>
<g>
	<g>
		<path fill="#E2E2E2" d="M225,217.5c-0.667,0-1.333,0-2,0c-1.363,0-2.5,1.137-2.5,2.5s1.137,2.5,2.5,2.5c0.667,0,1.333,0,2,0
			c1.363,0,2.5-1.137,2.5-2.5S226.363,217.5,225,217.5L225,217.5z"/>
	</g>
</g>
<g>
	<g>
		<path fill="#E2E2E2" d="M205,225.5c3.224,0,3.224-5,0-5S201.776,225.5,205,225.5L205,225.5z"/>
	</g>
</g>
<g>
	<g>
		<path fill="#E2E2E2" d="M202.5,237.5c3.224,0,3.224-5,0-5S199.276,237.5,202.5,237.5L202.5,237.5z"/>
	</g>
</g>
<g>
	<g>
		<path fill="#E2E2E2" d="M214,239c0.5,0,1,0,1.5,0c1.363,0,2.5-1.137,2.5-2.5s-1.137-2.5-2.5-2.5c-0.5,0-1,0-1.5,0
			c-1.363,0-2.5,1.137-2.5,2.5S212.637,239,214,239L214,239z"/>
	</g>
</g>
<g>
	<g>
		<path fill="#E2E2E2" d="M231.5,234.5c0.167,0,0.333,0,0.5,0c1.363,0,2.5-1.137,2.5-2.5s-1.137-2.5-2.5-2.5c-0.167,0-0.333,0-0.5,0
			c-1.363,0-2.5,1.137-2.5,2.5S230.137,234.5,231.5,234.5L231.5,234.5z"/>
	</g>
</g>
<g>
	<g>
		<path fill="#E2E2E2" d="M238,230.5c0-0.5,0-1,0-1.5c0-1.363-1.137-2.5-2.5-2.5s-2.5,1.137-2.5,2.5c0,0.5,0,1,0,1.5
			c0,1.363,1.137,2.5,2.5,2.5S238,231.863,238,230.5L238,230.5z"/>
	</g>
</g>
<g>
	<g>
		<path fill="#E2E2E2" d="M233,213c-0.09,0-0.18,0-0.27-0.003c-0.043-0.002-0.086-0.005-0.129-0.007
			c1.009,0.019,1.643,0.689,1.899,2.01c-0.131-1.356-1.038-2.5-2.5-2.5c-1.263,0-2.631,1.141-2.5,2.5
			c0.098,1.009,0.456,2.015,1.413,2.53c0.662,0.356,1.344,0.468,2.087,0.47c1.363,0.004,2.5-1.14,2.5-2.5
			C235.5,214.134,234.363,213.004,233,213L233,213z"/>
	</g>
</g>
<g>
	<g>
		<path fill="#E2E2E2" d="M249,224c0.333,0,0.667,0,1,0c1.363,0,2.5-1.137,2.5-2.5s-1.137-2.5-2.5-2.5c-0.333,0-0.667,0-1,0
			c-1.363,0-2.5,1.137-2.5,2.5S247.637,224,249,224L249,224z"/>
	</g>
</g>
<g>
	<g>
		<path fill="#E2E2E2" d="M268,220c-0.001-0.076,0-0.153,0.003-0.229c-0.002,0.342-0.09,0.661-0.263,0.957
			c-0.314,0.382-0.38,0.472-0.198,0.27c0.074-0.077,0.149-0.154,0.226-0.229c0.962-0.964,0.965-2.571,0-3.535
			c-0.962-0.962-2.573-0.965-3.535,0c-0.796,0.798-1.229,1.62-1.232,2.768c-0.004,1.363,1.141,2.5,2.5,2.5
			C266.866,222.5,267.996,221.363,268,220L268,220z"/>
	</g>
</g>
<g>
	<g>
		<path fill="#E2E2E2" d="M282.5,211c0.018-0.597-0.131,0.565-0.013,0.029c0.024-0.095,0.054-0.188,0.088-0.28
			c-0.163,0.372-0.187,0.437-0.07,0.197c0.201-0.403,0.447-0.783,0.653-1.184c0.623-1.212,0.325-2.705-0.896-3.42
			c-1.127-0.66-2.798-0.314-3.42,0.897c-0.229,0.445-0.497,0.869-0.721,1.316c-0.396,0.792-0.595,1.557-0.621,2.446
			c-0.04,1.363,1.168,2.5,2.5,2.5C281.394,213.5,282.46,212.362,282.5,211L282.5,211z"/>
	</g>
</g>
<g>
	<g>
		<path fill="#E2E2E2" d="M294.768,207.268c0.458-0.419-0.429,0.277,0.016-0.004c0.285-0.18,0.546-0.39,0.811-0.601
			c0.65-0.518,0.832-1.394,0.906-2.163c0.131-1.359-1.236-2.5-2.5-2.5c-1.462,0-2.369,1.144-2.5,2.5
			c0.037-0.731,0.328-1.273,0.873-1.625c-0.079,0.049-0.157,0.098-0.236,0.148c-0.321,0.204-0.624,0.451-0.904,0.709
			c-1.005,0.921-0.933,2.604,0,3.535C292.227,208.262,293.765,208.188,294.768,207.268L294.768,207.268z"/>
	</g>
</g>
<g>
	<g>
		<path fill="#E2E2E2" d="M306.268,197.232c-0.166-0.167-0.333-0.333-0.5-0.5c-0.963-0.963-2.572-0.963-3.535,0
			c-0.963,0.963-0.963,2.572,0,3.535c0.166,0.167,0.333,0.333,0.5,0.5c0.963,0.963,2.572,0.963,3.535,0
			C307.23,199.805,307.23,198.195,306.268,197.232L306.268,197.232z"/>
	</g>
</g>
<g>
	<g>
		<path fill="#E2E2E2" d="M307.5,191.5c-0.059-0.625-0.133-1.023-0.433-1.58c-0.13-0.241-0.328-0.453-0.516-0.654
			c-0.022-0.023-0.045-0.046-0.068-0.068c0.334,0.356,0.506,0.79,0.517,1.302c-0.127-1.356-1.041-2.5-2.5-2.5
			c-1.267,0-2.627,1.141-2.5,2.5c0.059,0.625,0.133,1.023,0.433,1.58c0.13,0.241,0.328,0.453,0.516,0.654
			c0.022,0.023,0.045,0.046,0.068,0.068c-0.334-0.356-0.506-0.79-0.517-1.302c0.127,1.356,1.041,2.5,2.5,2.5
			C306.267,194,307.627,192.859,307.5,191.5L307.5,191.5z"/>
	</g>
</g>
<g>
	<g>
		<path fill="#E2E2E2" d="M306.5,188c3.225,0,3.225-5,0-5S303.275,188,306.5,188L306.5,188z"/>
	</g>
</g>
<g>
	<g>
		<path fill="#E2E2E2" d="M295,183c-0.667,0-1.333,0-2,0c-1.363,0-2.5,1.137-2.5,2.5s1.137,2.5,2.5,2.5c0.667,0,1.333,0,2,0
			c1.363,0,2.5-1.137,2.5-2.5S296.363,183,295,183L295,183z"/>
	</g>
</g>
<g>
	<g>
		<path fill="#E2E2E2" d="M286,193c0.612-0.02,1.002-0.149,1.546-0.422c0.985-0.496,1.359-1.563,1.454-2.578
			c0.127-1.359-1.233-2.5-2.5-2.5c-1.459,0-2.373,1.144-2.5,2.5c0.146-1.043,0.642-1.688,1.485-1.935
			c-0.32,0.112,0.731-0.072,0.515-0.065c-1.361,0.044-2.5,1.104-2.5,2.5C283.5,191.83,284.638,193.044,286,193L286,193z"/>
	</g>
</g>
<g>
	<g>
		<path fill="#E2E2E2" d="M224.5,254c3.224,0,3.224-5,0-5S221.276,254,224.5,254L224.5,254z"/>
	</g>
</g>
<g>
	<g>
		<path fill="#E2E2E2" d="M239.5,247c0-0.167,0-0.333,0-0.5c0-1.363-1.137-2.5-2.5-2.5s-2.5,1.137-2.5,2.5c0,0.167,0,0.333,0,0.5
			c0,1.363,1.137,2.5,2.5,2.5S239.5,248.363,239.5,247L239.5,247z"/>
	</g>
</g>
<g>
	<g>
		<path fill="#E2E2E2" d="M246.268,236.732c-0.187-0.188-0.531-0.705-0.028,0.04c0.173,0.295,0.261,0.614,0.263,0.957
			c-0.002-0.076-0.003-0.153-0.003-0.229c-0.004-1.363-1.134-2.5-2.5-2.5c-1.36,0-2.504,1.137-2.5,2.5
			c0.003,1.148,0.437,1.97,1.232,2.768c0.961,0.965,2.573,0.962,3.535,0C247.232,239.304,247.229,237.697,246.268,236.732
			L246.268,236.732z"/>
	</g>
</g>
<g>
	<g>
		<path fill="#E2E2E2" d="M252,242.5c0.167,0,0.333,0,0.5,0c1.363,0,2.5-1.137,2.5-2.5s-1.137-2.5-2.5-2.5c-0.167,0-0.333,0-0.5,0
			c-1.363,0-2.5,1.137-2.5,2.5S250.637,242.5,252,242.5L252,242.5z"/>
	</g>
</g>
<g>
	<g>
		<path fill="#E2E2E2" d="M260.5,242c3.225,0,3.225-5,0-5S257.275,242,260.5,242L260.5,242z"/>
	</g>
</g>
<g>
	<g>
		<path fill="#E2E2E2" d="M270.268,230.768c0.048-0.047,0.098-0.093,0.148-0.137c0.331-0.294-0.525,0.391-0.144,0.108
			c0.222-0.164,0.449-0.319,0.673-0.48c0.637-0.458,1.261-0.942,1.822-1.492c0.975-0.952,0.955-2.58,0-3.535
			c-0.971-0.971-2.562-0.953-3.535,0c-0.218,0.213-0.442,0.415-0.676,0.61c-0.454,0.379,0.439-0.326-0.012,0.009
			c-0.119,0.089-0.24,0.175-0.362,0.261c-0.496,0.353-1.01,0.698-1.45,1.12c-0.984,0.942-0.948,2.588,0,3.535
			C267.711,231.747,269.284,231.71,270.268,230.768L270.268,230.768z"/>
	</g>
</g>
<g>
	<g>
		<path fill="#E2E2E2" d="M283.5,231.5c0.167,0,0.333,0,0.5,0c1.363,0,2.5-1.137,2.5-2.5s-1.137-2.5-2.5-2.5c-0.167,0-0.333,0-0.5,0
			c-1.363,0-2.5,1.137-2.5,2.5S282.137,231.5,283.5,231.5L283.5,231.5z"/>
	</g>
</g>
<g>
	<g>
		<path fill="#E2E2E2" d="M294.768,228.268c0.458-0.419-0.429,0.277,0.016-0.004c0.285-0.18,0.546-0.39,0.811-0.601
			c0.65-0.518,0.832-1.394,0.906-2.163c0.131-1.359-1.236-2.5-2.5-2.5c-1.462,0-2.369,1.144-2.5,2.5
			c0.037-0.731,0.328-1.273,0.873-1.625c-0.079,0.049-0.157,0.098-0.236,0.148c-0.321,0.204-0.624,0.451-0.904,0.709
			c-1.005,0.921-0.933,2.604,0,3.535C292.227,229.262,293.765,229.188,294.768,228.268L294.768,228.268z"/>
	</g>
</g>
<g>
	<g>
		<path fill="#E2E2E2" d="M310.5,215.5c0.001-0.212,0.095-0.831-0.042-0.017c0.069-0.249,0.034-0.186-0.107,0.188
			c0.134-0.216,0.106-0.184-0.083,0.097c0.918-1.006,0.996-2.539,0-3.535c-0.93-0.93-2.617-1.007-3.535,0
			c-0.861,0.945-1.229,1.995-1.232,3.268c-0.004,1.363,1.14,2.5,2.5,2.5C309.365,218,310.496,216.863,310.5,215.5L310.5,215.5z"/>
	</g>
</g>
<g>
	<g>
		<path fill="#E2E2E2" d="M312,206.5c0-0.167,0-0.333,0-0.5c0-1.363-1.137-2.5-2.5-2.5s-2.5,1.137-2.5,2.5c0,0.167,0,0.333,0,0.5
			c0,1.363,1.137,2.5,2.5,2.5S312,207.863,312,206.5L312,206.5z"/>
	</g>
</g>
<g>
	<g>
		<path fill="#E2E2E2" d="M315.5,199c-0.02-0.612-0.149-1.002-0.423-1.546c-0.495-0.985-1.563-1.359-2.577-1.454
			c-1.359-0.127-2.5,1.233-2.5,2.5c0,1.459,1.144,2.373,2.5,2.5c-1.044-0.146-1.688-0.642-1.935-1.486
			c0.111,0.321-0.072-0.731-0.065-0.514c0.044,1.362,1.104,2.5,2.5,2.5C314.329,201.5,315.544,200.363,315.5,199L315.5,199z"/>
	</g>
</g>
<g>
	<g>
		<path fill="#E2E2E2" d="M322.268,193.268c0.294-0.321,0.57-0.671,0.786-1.051c0.075-0.133,0.14-0.273,0.21-0.409
			c0.084-0.163,0.394-0.465,0.004-0.04c0.919-1.004,0.995-2.54,0-3.535c-0.931-0.931-2.615-1.006-3.535,0
			c-0.294,0.321-0.57,0.671-0.786,1.051c-0.075,0.133-0.14,0.273-0.21,0.409c-0.084,0.163-0.394,0.465-0.004,0.04
			c-0.919,1.004-0.995,2.54,0,3.535C319.663,194.199,321.348,194.273,322.268,193.268L322.268,193.268z"/>
	</g>
</g>
<g>
	<g>
		<path fill="#E2E2E2" d="M331.5,194.5c3.225,0,3.225-5,0-5S328.275,194.5,331.5,194.5L331.5,194.5z"/>
	</g>
</g>
<g>
	<g>
		<path fill="#E2E2E2" d="M335,204.5c3.225,0,3.225-5,0-5S331.775,204.5,335,204.5L335,204.5z"/>
	</g>
</g>
<g>
	<g>
		<path fill="#E2E2E2" d="M324,207c-0.333,0-0.667,0-1,0c-1.363,0-2.5,1.137-2.5,2.5s1.137,2.5,2.5,2.5c0.333,0,0.667,0,1,0
			c1.363,0,2.5-1.137,2.5-2.5S325.363,207,324,207L324,207z"/>
	</g>
</g>
<g>
	<g>
		<path fill="#E2E2E2" d="M328.5,215.5c0.167,0,0.333,0,0.5,0c1.363,0,2.5-1.137,2.5-2.5s-1.137-2.5-2.5-2.5c-0.167,0-0.333,0-0.5,0
			c-1.363,0-2.5,1.137-2.5,2.5S327.137,215.5,328.5,215.5L328.5,215.5z"/>
	</g>
</g>
<g>
	<g>
		<path fill="#E2E2E2" d="M344.768,208.268c0.334-0.333,0.667-0.667,1-1c0.963-0.963,0.963-2.572,0-3.535
			c-0.963-0.963-2.572-0.963-3.535,0c-0.334,0.333-0.667,0.667-1,1c-0.963,0.963-0.963,2.572,0,3.535
			C342.195,209.231,343.805,209.231,344.768,208.268L344.768,208.268z"/>
	</g>
</g>
<g>
	<g>
		<path fill="#E2E2E2" d="M356.658,206.262c0.111-0.214,0.228-0.423,0.354-0.629c0.092-0.149,0.547-0.728,0.05-0.106
			c0.216-0.27,0.463-0.514,0.706-0.758c0.963-0.963,0.964-2.572,0-3.535c-0.963-0.963-2.572-0.964-3.535,0
			c-0.744,0.744-1.408,1.567-1.891,2.506c-0.624,1.211-0.325,2.705,0.896,3.42C354.366,207.819,356.035,207.472,356.658,206.262
			L356.658,206.262z"/>
	</g>
</g>
<g>
	<g>
		<path fill="#E2E2E2" d="M360.5,205c3.225,0,3.225-5,0-5S357.275,205,360.5,205L360.5,205z"/>
	</g>
</g>
<g>
	<g>
		<path fill="#E2E2E2" d="M282.5,246.5c3.225,0,3.225-5,0-5S279.275,246.5,282.5,246.5L282.5,246.5z"/>
	</g>
</g>
<g>
	<g>
		<path fill="#E2E2E2" d="M300.762,240.159c0.938-0.483,1.762-1.147,2.506-1.891c0.964-0.962,0.963-2.573,0-3.535
			c-0.964-0.964-2.571-0.963-3.535,0c-0.245,0.244-0.492,0.483-0.758,0.706c0.604-0.505,0.045-0.048-0.107,0.05
			c-0.201,0.131-0.415,0.243-0.629,0.353c-1.211,0.623-1.558,2.292-0.896,3.42C298.057,240.483,299.55,240.783,300.762,240.159
			L300.762,240.159z"/>
	</g>
</g>
<g>
	<g>
		<path fill="#E2E2E2" d="M313.5,232c0-0.5,0-1,0-1.5c0-1.363-1.137-2.5-2.5-2.5s-2.5,1.137-2.5,2.5c0,0.5,0,1,0,1.5
			c0,1.363,1.137,2.5,2.5,2.5S313.5,233.363,313.5,232L313.5,232z"/>
	</g>
</g>
<g>
	<g>
		<path fill="#E2E2E2" d="M314.5,227.5c3.225,0,3.225-5,0-5S311.275,227.5,314.5,227.5L314.5,227.5z"/>
	</g>
</g>
<g>
	<g>
		<path fill="#E2E2E2" d="M327,229c0.612-0.02,1.002-0.149,1.546-0.422c0.985-0.496,1.359-1.563,1.454-2.578
			c0.127-1.359-1.233-2.5-2.5-2.5c-1.459,0-2.373,1.144-2.5,2.5c0.146-1.043,0.642-1.688,1.485-1.935
			c-0.32,0.112,0.731-0.072,0.515-0.065c-1.361,0.044-2.5,1.104-2.5,2.5C324.5,227.83,325.638,229.044,327,229L327,229z"/>
	</g>
</g>
<g>
	<g>
		<path fill="#E2E2E2" d="M340.5,222c0-0.167,0-0.333,0-0.5c0-1.363-1.137-2.5-2.5-2.5s-2.5,1.137-2.5,2.5c0,0.167,0,0.333,0,0.5
			c0,1.363,1.137,2.5,2.5,2.5S340.5,223.363,340.5,222L340.5,222z"/>
	</g>
</g>
<g>
	<g>
		<path fill="#E2E2E2" d="M346.5,218.5c3.225,0,3.225-5,0-5S343.275,218.5,346.5,218.5L346.5,218.5z"/>
	</g>
</g>
<g>
	<g>
		<path fill="#E2E2E2" d="M200.5,166c3.224,0,3.224-5,0-5S197.276,166,200.5,166L200.5,166z"/>
	</g>
</g>
<g>
	<g>
		<path fill="#E2E2E2" d="M177,172c3.224,0,3.224-5,0-5S173.776,172,177,172L177,172z"/>
	</g>
</g>
<g>
	<g>
		<path fill="#E2E2E2" d="M156.5,183c-0.167,0-0.333,0-0.5,0c-1.363,0-2.5,1.137-2.5,2.5s1.137,2.5,2.5,2.5c0.167,0,0.333,0,0.5,0
			c1.363,0,2.5-1.137,2.5-2.5S157.863,183,156.5,183L156.5,183z"/>
	</g>
</g>
<g>
	<g>
		<path fill="#E2E2E2" d="M151,195c-1.273,0.003-2.323,0.371-3.268,1.232c-1.007,0.918-0.93,2.605,0,3.535
			c0.996,0.997,2.529,0.917,3.535,0c-0.28,0.189-0.313,0.217-0.097,0.083c-0.374,0.141-0.437,0.177-0.188,0.106
			C150.244,200.143,150.744,200,151,200c1.363-0.004,2.5-1.134,2.5-2.5C153.5,196.14,152.363,194.996,151,195L151,195z"/>
	</g>
</g>
<g>
	<g>
		<path fill="#E2E2E2" d="M142.5,205.5c-0.006-0.265,0.057-0.512,0.191-0.74c-0.04,0.075-0.084,0.146-0.134,0.215
			c0.407-0.612,0.314-0.386,0.175-0.243c-0.948,0.978-0.975,2.561,0,3.535c0.952,0.952,2.587,0.979,3.535,0
			c0.757-0.781,1.14-1.69,1.232-2.768c0.116-1.36-1.225-2.5-2.5-2.5C143.549,203,142.616,204.143,142.5,205.5L142.5,205.5z"/>
	</g>
</g>
<g>
	<g>
		<path fill="#E2E2E2" d="M259,174.5c3.225,0,3.225-5,0-5S255.775,174.5,259,174.5L259,174.5z"/>
	</g>
</g>
<g>
	<g>
		<path fill="#E2E2E2" d="M277.5,173.5c0.002,0.461-0.154,0.839-0.47,1.133c0.034-0.034,0.068-0.068,0.103-0.102
			c-0.294,0.314-0.671,0.471-1.133,0.469c1.357-0.12,2.5-1.046,2.5-2.5c0-1.272-1.141-2.62-2.5-2.5
			c-1.994,0.176-3.324,1.506-3.5,3.5c-0.12,1.359,1.229,2.5,2.5,2.5C276.453,176,277.38,174.857,277.5,173.5L277.5,173.5z"/>
	</g>
</g>
<g>
	<g>
		<path fill="#E2E2E2" d="M283.5,180.5c3.225,0,3.225-5,0-5S280.275,180.5,283.5,180.5L283.5,180.5z"/>
	</g>
</g>
<g>
	<g>
		<path fill="#E2E2E2" d="M259.268,208.268c0.334-0.333,0.667-0.667,1-1c0.963-0.963,0.963-2.572,0-3.535
			c-0.963-0.963-2.572-0.963-3.535,0c-0.334,0.333-0.667,0.667-1,1c-0.963,0.963-0.963,2.572,0,3.535
			C256.695,209.231,258.305,209.231,259.268,208.268L259.268,208.268z"/>
	</g>
</g>
<g>
	<g>
		<path fill="#E2E2E2" d="M248,202c0-0.167,0-0.333,0-0.5c0-1.363-1.137-2.5-2.5-2.5s-2.5,1.137-2.5,2.5c0,0.167,0,0.333,0,0.5
			c0,1.363,1.137,2.5,2.5,2.5S248,203.363,248,202L248,202z"/>
	</g>
</g>
<g>
	<g>
		<path fill="#E2E2E2" d="M248.5,193c0-0.167,0-0.333,0-0.5c0-1.363-1.137-2.5-2.5-2.5s-2.5,1.137-2.5,2.5c0,0.167,0,0.333,0,0.5
			c0,1.363,1.137,2.5,2.5,2.5S248.5,194.363,248.5,193L248.5,193z"/>
	</g>
</g>
<g>
	<g>
		<path fill="#E2E2E2" d="M181.5,248.5c3.224,0,3.224-5,0-5S178.276,248.5,181.5,248.5L181.5,248.5z"/>
	</g>
</g>
<g>
	<g>
		<path fill="#E2E2E2" d="M167,250.5c-0.333,0-0.667,0-1,0c-1.363,0-2.5,1.137-2.5,2.5s1.137,2.5,2.5,2.5c0.333,0,0.667,0,1,0
			c1.363,0,2.5-1.137,2.5-2.5S168.363,250.5,167,250.5L167,250.5z"/>
	</g>
</g>
<g>
	<g>
		<path fill="#E2E2E2" d="M161,258.5c3.224,0,3.224-5,0-5S157.776,258.5,161,258.5L161,258.5z"/>
	</g>
</g>
<g>
	<g>
		<path fill="#E2E2E2" d="M157,264.5c3.224,0,3.224-5,0-5S153.776,264.5,157,264.5L157,264.5z"/>
	</g>
</g>
<g>
	<g>
		<path fill="#E2E2E2" d="M176.5,259c1.994-0.176,3.324-1.506,3.5-3.5c0.12-1.359-1.228-2.5-2.5-2.5c-1.454,0-2.38,1.144-2.5,2.5
			c-0.001-0.462,0.155-0.839,0.469-1.133c-0.034,0.034-0.068,0.068-0.102,0.103c0.293-0.315,0.671-0.472,1.133-0.47
			c-1.357,0.12-2.5,1.047-2.5,2.5C174,257.771,175.141,259.12,176.5,259L176.5,259z"/>
	</g>
</g>
<g>
	<g>
		<path fill="#E2E2E2" d="M190.659,252.762c0.276-0.585,0.508-1.177,0.685-1.797c0.058-0.203,0.115-0.405,0.181-0.605
			c0.094-0.253,0.064-0.182-0.089,0.211c0.136-0.221,0.08-0.155-0.167,0.197c0.907-1.016,1.004-2.531,0-3.535
			c-0.922-0.922-2.628-1.018-3.535,0c-0.524,0.587-0.833,1.194-1.076,1.94c-0.067,0.207-0.121,0.417-0.181,0.626
			c-0.032,0.113-0.067,0.226-0.104,0.338c-0.038,0.121-0.293,0.658-0.031,0.102c-0.582,1.232-0.354,2.688,0.897,3.42
			C188.335,254.302,190.077,253.994,190.659,252.762L190.659,252.762z"/>
	</g>
</g>
<g>
	<g>
		<path fill="#E2E2E2" d="M198,244c3.224,0,3.224-5,0-5S194.776,244,198,244L198,244z"/>
	</g>
</g>
<g>
	<g>
		<path fill="#E2E2E2" d="M203,255.5c3.224,0,3.224-5,0-5S199.776,255.5,203,255.5L203,255.5z"/>
	</g>
</g>
<g>
	<g>
		<path fill="#E2E2E2" d="M214.5,257c0.167,0,0.333,0,0.5,0c1.363,0,2.5-1.137,2.5-2.5s-1.137-2.5-2.5-2.5c-0.167,0-0.333,0-0.5,0
			c-1.363,0-2.5,1.137-2.5,2.5S213.137,257,214.5,257L214.5,257z"/>
	</g>
</g>
<g>
	<g>
		<path fill="#E2E2E2" d="M316,182.5c3.225,0,3.225-5,0-5S312.775,182.5,316,182.5L316,182.5z"/>
	</g>
</g>
<g>
	<g>
		<path fill="#E2E2E2" d="M304.5,176c0.82,0.046,0.487,0.085,0.211-0.015c-0.14-0.051-0.276-0.112-0.415-0.167
			c-0.563-0.225-1.196-0.3-1.796-0.317c-1.362-0.04-2.5,1.167-2.5,2.5c0,1.393,1.138,2.46,2.5,2.5c0.289,0.015,0.229,0-0.179-0.048
			c0.094,0.016,0.188,0.037,0.279,0.063c0.163,0.041,0.321,0.105,0.477,0.167c0.483,0.193,0.877,0.287,1.423,0.317
			c1.361,0.077,2.5-1.195,2.5-2.5C307,177.079,305.86,176.077,304.5,176L304.5,176z"/>
	</g>
</g>
<g>
	<g>
		<path fill="#E2E2E2" d="M294,182c3.225,0,3.225-5,0-5S290.775,182,294,182L294,182z"/>
	</g>
</g>
<g>
	<g>
		<path fill="#E2E2E2" d="M157.5,248c3.224,0,3.224-5,0-5S154.276,248,157.5,248L157.5,248z"/>
	</g>
</g>
<g>
	<g>
		<path fill="#E2E2E2" d="M174.5,242c3.224,0,3.224-5,0-5S171.276,242,174.5,242L174.5,242z"/>
	</g>
</g>
<g>
	<g>
		<path fill="#E2E2E2" d="M173,230.5c3.224,0,3.224-5,0-5S169.776,230.5,173,230.5L173,230.5z"/>
	</g>
</g>
<g>
	<path fill="#E2E2E1" d="M211.5,285c12.5,1,24.5-6,36.5-6.5c6-0.5,12.5-1,18-2c8-2,10.5-11,14-17.5c-6.5,2.5-12,8-18.5,11
		c-5,2.5-10.5,4.5-16,6c-5,1.5-10,2.5-15.5,4s-12.5,5-18.5,5.5"/>
</g>
<g>
	<path fill="#E2E2E1" d="M112,308.5c7-6,19.5-8.5,27.5-13c6-3.5,12.5-6.5,18.5-10.5c5.5-3.5,10-8.5,15-12c-10.5,2-20,7-29.5,13
		c-5,3-10.5,6-16,8.5c-3,1.5-6,3-8.5,5c-2.5,2.5-4,5.5-6.5,7.5"/>
</g>
<g>
	<path fill="#E2E2E1" d="M356.992,238.027c-0.604,8.365-11.484,20.214-17.529,22.305c0-2.091,0-4.183,1.209-6.272
		c-5.44,6.971-12.693,13.244-20.552,13.94c3.022-2.091,5.44-4.183,7.858-6.97c-4.231,1.393-7.858,4.182-12.089,4.879
		c10.275-9.062,35.058-11.152,39.894-26.488"/>
</g>
<g>
	<g>
		<path d="M374.5,137.5c3.225,0,3.225-5,0-5S371.275,137.5,374.5,137.5L374.5,137.5z"/>
	</g>
</g>
<g>
	<g>
		<path fill="#EFEFEF" d="M374,136.5c3.225,0,3.225-5,0-5S370.775,136.5,374,136.5L374,136.5z"/>
	</g>
</g>
<g>
	<g>
		<path fill="#EFEFEF" d="M405,147.5c3.225,0,3.225-5,0-5S401.775,147.5,405,147.5L405,147.5z"/>
	</g>
</g>
<g>
	<g>
		<path fill="#EFEFEF" d="M371.333,133.75c1.612,0,1.612-2.5,0-2.5S369.721,133.75,371.333,133.75L371.333,133.75z"/>
	</g>
</g>
<g>
	<g>
		<path fill="#EFEFEF" d="M402.833,144.25c1.612,0,1.612-2.5,0-2.5S401.221,144.25,402.833,144.25L402.833,144.25z"/>
	</g>
</g>
<g>
	<g>
		<path fill="#EFEFEF" d="M371.667,136.125c0.806,0,0.806-1.25,0-1.25S370.861,136.125,371.667,136.125L371.667,136.125z"/>
	</g>
</g>
<g>
	<g>
		<path fill="#EFEFEF" d="M402.333,146.292c0.806,0,0.806-1.25,0-1.25S401.527,146.292,402.333,146.292L402.333,146.292z"/>
	</g>
</g>
<g>
	<path fill="#434343" d="M375.667,172.583c0.834-3.5-12.167-3.083-14-5.417c-2.334,2.667-3.167,9.5,0.5,10.833
		c0.166-1.5-1-2.667-0.834-4.167c0.5-2.167,1.834-2.167,3.5-1.667C367.333,172.833,373.5,173.75,375.667,172.583"/>
</g>
<path fill="#C65BA2" stroke="#C65BA2" stroke-miterlimit="10" d="M362.5,100.333c-1.656-2.361-3.688-2.582-6.333-3
	c-1.993-0.315-5.599-0.757-6.946-2.397c1.222,4.667,4.254,9.501,8.545,11.082c-2.051-1.77-4.091-4.865-5.37-7.208
	c1.812,1.206,3.398,1.524,5.771,1.524c0.927,0,2.097-0.196,3,0c0.839,0.182,1.689,0.985,2.166,1.167"/>
<path fill="#C65BA2" stroke="#C65BA2" stroke-miterlimit="10" d="M425,113.5c2.351-0.595,4.389-0.88,7-1.168
	c2.303-0.254,4.522-1.52,6.949-1.499c-2.368,0.292-4.46,1.71-6.408,2.745c-0.738,0.392-1.582,0.915-2.37,1.259
	c-0.951,0.415-2.342,0.286-3.111,1.03c0.927-1.042,3.084-1.909,4.387-2.529c-1.784-0.435-4.596-0.004-6.613-0.004"/>
<g>
	<path fill="#4C4C4D" d="M357.399,138.333c-1.205,2.5-1.656,5.833-2.41,8.5c-0.903,3.333-1.656,6.5-2.259,9.833
		c-0.452,2.333-0.753,4.667-1.205,7c-0.301,2.333-1,4.5-0.849,7c0.301,4.167,0.149,9.333,2.56,13c1.507,2.333,3.464,4,5.874,5.167
		c1.055,0.667,4.519,2.5,5.723,1.833c-3.313-3-6.928-7.333-7.981-12c-1.355-4.833-0.657-10-1.561-14.833
		c-0.904-5.337-0.151-9.162,1.355-14.167c0.753-2.667,3.313-9.667,1.355-12"/>
</g>
<g>
	<path fill="#4C4C4D" d="M372.091,113.122c3.139-7.487,11.188-5.432,16.782-3.229c4.366,1.762,8.05,4.551,12.143,6.753
		c2.865,1.469,4.775,1.028,7.641,1.321c-1.774,5.285-6.549,3.523-10.506,2.202c-3.548-1.174-6.958-2.936-10.506-4.11
		c-3.41-1.321-6.685-2.349-10.096-2.937c-2.047-0.293-4.775-0.44-6.549,1.028"/>
</g>
<g>
	<path fill="#4C4C4D" d="M335.747,410.739c-0.539-0.986,0.02,0.75,0.033,1.249c0.196,0.996,0.229,2.245,0.261,3.495
		c0.27,3.744,0.537,7.488,0.984,11.479c0.702,7.233,1.91,14.205,2.782,21.435c0.434,3.49,0.524,6.989,0.787,10.483
		c0.064,2.499,0.663,5.734,0.214,8.247c-0.456,2.263-1.313,2.285-3.019,2.579c-0.855,0.022-5.11,1.133-5.834-0.349
		c-0.539-0.986,0.752-4.021,1.068-5.029c1.102-3.78,2.025-7.806,2.607-11.822c0.865-6.274,1.388-12.54,1.055-18.783
		c-0.373-7.743-1.949-15.705-2.493-23.443C334.174,409.529,335.59,411.243,335.747,410.739"/>
</g>
<g>
	<path fill="#4C4C4D" d="M304.867,429.25c1.021,4.589-5.266,17.774-6.627,21.904c-1.702,4.589-3.404,5.966,0.681,8.26
		c1.702,0.459,1.185,0.457,2.887,0.916c0.681-4.589,1.879-9.635,1.538-13.765C302.744,440.48,305.049,435.813,304.867,429.25"/>
</g>
<g>
	<path fill="#434343" d="M75.694,468.467c-0.765,3.084-3.059,5.606,2.294,7.289c2.676,0.561,7.265,0.561,9.559-0.562
		c-2.676-2.242-6.371-0.376-9.047-2.899"/>
</g>
<g>
	<path fill="#434343" d="M330.5,480.25c3,2.5,9,0.25,11.75-1.75c0.75,0.75,1.75,2,2.5,3c-2.5,0-5-1-7.5-0.5c-2.75,0.75-6,4-6.5-0.5"
		/>
</g>
<g>
	<path fill="#434343" d="M293.75,474.5c1.75-1,5.75-0.25,5.5-2.75c1,2,1.75,2.5-0.75,3.25c-1.25,0.25-4,0.25-5-0.5"/>
</g>
<g>
	<path fill="#434343" d="M178.75,475c4.5-1,10.5-3,11.75-8.25c-1.75,2.5,1.5,7.5-0.5,9.5c-1,1-5.25,1.25-6.75,1s-3.25-1-4.25-2.25"
		/>
</g>
<g>
	<path fill="#4C4C4D" d="M162,424.75c-0.25,1.25,2.25,5.5,3,7.25c2,3.75,4,7.5,6.25,11c3,4.75,6.5,8.5,10,12.75
		c-1.5,2.5-6.5,3.75-9.25,4.75c-1-3-1.5-6.25-2.75-9.5c-1.25-3.5-3.25-6.75-4.25-10.25c-1.25-3.25-2-6.5-2.75-10
		c-0.5-2.75,0.25-7-1.5-9.5"/>
</g>
<g>
	<path fill="#4C4C4D" d="M82.163,410.75c0.586,3.28,0,7.544,0.195,10.823c0.195,4.264,0.586,7.872,1.172,11.808
		c0.585,3.608,0.976,7.217,1.367,11.152c0.195,2.295,1.171,8.855,0.391,11.151c-0.781,2.296-2.343,0.984-3.71,0.655
		c-1.562-0.328-2.343,0.329-2.734-2.295c-0.585-2.624,0-8.2,0.195-11.152c0.781-10.495,2.148-21.647,3.515-32.143"/>
</g>
</svg>
